# xmcd
#
# Track frame offsets: 
#        150
#        12523
#        32524
#        48477
#        67113
#        84653
#        104511
#        122716
#        137637
#        149941
#
# Disc length: 2178 seconds
#
# Revision: 1
# Processed by: cddbd v1.5.2PL0 Copyright (c) Steve Scherf et al.
# Submitted via: ExactAudioCopy v1.0b4
#
DISCID=9708800a
DTITLE=Matt Andersen - Honest Man
DYEAR=2016
DGENRE=Blues
TTITLE0=Break Away
TTITLE1=The Gift
TTITLE2=Honest Man
TTITLE3=I'm Givin' In
TTITLE4=Quiet Company
TTITLE5=Let's Get Back
TTITLE6=All The Way
TTITLE7=Last Surrender
TTITLE8=Who Are You Listening To
TTITLE9=One Good Song
EXTD=
EXTT0=
EXTT1=
EXTT2=
EXTT3=
EXTT4=
EXTT5=
EXTT6=
EXTT7=
EXTT8=
EXTT9=
PLAYORDER=
